<?xml version="1.0" encoding="utf-8" ?>
<svg baseProfile="full" height="400px" version="1.1" viewBox="0 0 375 400" width="375px" xmlns="http://www.w3.org/2000/svg" xmlns:ev="http://www.w3.org/2001/xml-events" xmlns:xlink="http://www.w3.org/1999/xlink"><defs /><path d="M 355.0,180.0 C 350.5,236.9 341.4,224.5 291.0,269.1 C 240.6,313.8 256.9,330.4 187.0,328.9 C 117.1,327.4 104.5,308.9 57.9,264.3 C 11.2,219.6 23.3,235.0 31.5,180.0 C 39.7,125.0 38.7,118.3 85.3,80.8 C 132.0,43.4 120.7,55.6 187.0,55.2 C 253.3,54.8 255.8,42.0 306.2,79.4 C 356.7,116.8 359.6,123.1 355.0,180.0 Z" fill="#DFF3EA" opacity="0.6" stroke="none" /><path d="M 324.4,100.0 C 326.6,117.1 329.8,116.6 308.1,127.8 C 286.4,139.0 274.4,145.7 251.9,137.4 C 229.5,129.0 233.6,120.9 233.2,100.0 C 232.7,79.1 230.1,76.3 250.4,67.6 C 270.7,58.9 278.7,61.2 300.9,70.9 C 323.1,80.7 322.3,82.9 324.4,100.0 Z" fill="#B8E4D4" opacity="0.3" stroke="none" /><circle cx="303.91061272639905" cy="237.3413712920808" fill="#B8E4D4" opacity="0.5189195360081453" r="4.421384819823141" /><circle cx="199.63641063732476" cy="370.3216750325734" fill="#B8E4D4" opacity="0.4656121893819681" r="3.1356031316250603" /><circle cx="297.8505625247533" cy="242.66711085112857" fill="#B8E4D4" opacity="0.4732056435770286" r="4.585120700932332" /><circle cx="256.0315651319994" cy="36.4967781160384" fill="#B8E4D4" opacity="0.38681638908063215" r="2.683694826954641" /><circle cx="46.73031226941521" cy="103.80471908997086" fill="#B8E4D4" opacity="0.3833920809330276" r="2.3030042882291872" /><circle cx="232.95428882857405" cy="151.3395844292303" fill="#B8E4D4" opacity="0.3628521092314463" r="3.110542901350648" /><circle cx="109.43757038645298" cy="357.1956515764978" fill="#B8E4D4" opacity="0.48273930170009643" r="3.9441061557397807" /><circle cx="77.33144714636249" cy="282.4856472621257" fill="#B8E4D4" opacity="0.4138366325272943" r="2.4902074812857853" /><circle cx="351.4903224632594" cy="250.39991354747343" fill="#B8E4D4" opacity="0.5053842752969624" r="3.6708492313239387" /><circle cx="302.3553932635862" cy="299.3599681566481" fill="#B8E4D4" opacity="0.30963007317121133" r="2.687144215892313" /><circle cx="125.67677109979245" cy="116.38671535125299" fill="#B8E4D4" opacity="0.5828729143005162" r="2.6329485307589793" /><circle cx="313.5831548683441" cy="133.28403708745205" fill="#B8E4D4" opacity="0.41868957031819926" r="3.9663159958846403" /><circle cx="326.37344256308205" cy="185.18666693146358" fill="#B8E4D4" opacity="0.373988252308195" r="2.7946404994941574" /><circle cx="208.0583249446555" cy="114.5869790682567" fill="#B8E4D4" opacity="0.5693468650807431" r="3.7537579706706214" /><circle cx="153.79916922203307" cy="98.955473296622" fill="#B8E4D4" opacity="0.45285788810293937" r="4.9926128194853305" /><g transform="translate(80,120) scale(1.0)"><polygon fill="none" points="-10,0 10,0 8,30 -8,30" stroke="#4DA89A" stroke-width="2" /><line stroke="#E8A838" stroke-linecap="round" stroke-width="2" x1="3" x2="5" y1="-10" y2="5" /><line stroke="#4DA89A" stroke-linecap="round" stroke-width="2.5" x1="-11" x2="11" y1="0" y2="0" /></g><g transform="translate(160,90) scale(1.1)"><rect fill="none" height="35" rx="4" ry="4" stroke="#4DA89A" stroke-width="2" width="16" x="-8" y="0" /><rect fill="none" height="14" rx="3" ry="3" stroke="#4DA89A" stroke-width="2" width="8" x="-4" y="-12" /><rect fill="#2B7A6B" height="5" opacity="0.7" rx="2" ry="2" stroke="none" width="10" x="-5" y="-16" /></g><g transform="translate(270,130) scale(0.9)"><rect fill="none" height="40" rx="5" ry="5" stroke="#4DA89A" stroke-width="2" width="24" x="-12" y="0" /><rect fill="none" height="12" rx="3" ry="3" stroke="#4DA89A" stroke-width="2" width="10" x="-5" y="-10" /><rect fill="#DFF3EA" height="12" rx="2" ry="2" stroke="none" width="16" x="-8" y="12" /></g><g transform="translate(120,220) scale(0.8)"><rect fill="none" height="35" rx="4" ry="4" stroke="#4DA89A" stroke-width="2" width="16" x="-8" y="0" /><rect fill="none" height="14" rx="3" ry="3" stroke="#4DA89A" stroke-width="2" width="8" x="-4" y="-12" /><rect fill="#2B7A6B" height="5" opacity="0.7" rx="2" ry="2" stroke="none" width="10" x="-5" y="-16" /></g><g transform="translate(250,230) scale(0.7)"><polygon fill="none" points="-10,0 10,0 8,30 -8,30" stroke="#4DA89A" stroke-width="2" /><line stroke="#E8A838" stroke-linecap="round" stroke-width="2" x1="3" x2="5" y1="-10" y2="5" /><line stroke="#4DA89A" stroke-linecap="round" stroke-width="2.5" x1="-11" x2="11" y1="0" y2="0" /></g><g transform="translate(200,170)"><line stroke="#2B7A6B" stroke-linecap="round" stroke-width="2.5" x1="6.429395695523604e-16" x2="5.250000000000001" y1="-10.5" y2="-9.093266739736606" /><circle cx="5.250000000000001" cy="-9.093266739736606" fill="#2B7A6B" r="3" /><line stroke="#2B7A6B" stroke-linecap="round" stroke-width="2.5" x1="9.093266739736606" x2="5.250000000000001" y1="5.249999999999999" y2="9.093266739736606" /><circle cx="5.250000000000001" cy="9.093266739736606" fill="#2B7A6B" r="3" /><line stroke="#2B7A6B" stroke-linecap="round" stroke-width="2.5" x1="-9.093266739736606" x2="-10.5" y1="5.249999999999999" y2="1.2858791391047208e-15" /><circle cx="-10.5" cy="1.2858791391047208e-15" fill="#2B7A6B" r="3" /></g><g transform="translate(310,80) scale(1.0)"><path d="M 0,-12 C 8,-8 10,0 6,8 C 3,12 0,12 0,12 C 0,12 -3,12 -6,8 C -10,0 -8,-8 0,-12 Z" fill="#DFF3EA" stroke="#2B7A6B" stroke-width="1.5" /><line opacity="0.5" stroke="#2B7A6B" stroke-width="1" x1="0" x2="0" y1="-8" y2="10" /></g><g transform="translate(60,260) scale(0.8)"><path d="M 0,-12 C 8,-8 10,0 6,8 C 3,12 0,12 0,12 C 0,12 -3,12 -6,8 C -10,0 -8,-8 0,-12 Z" fill="#DFF3EA" stroke="#2B7A6B" stroke-width="1.5" /><line opacity="0.5" stroke="#2B7A6B" stroke-width="1" x1="0" x2="0" y1="-8" y2="10" /></g></svg>