<?xml version="1.0" encoding="utf-8" ?>
<svg baseProfile="full" height="400px" version="1.1" viewBox="0 0 375 400" width="375px" xmlns="http://www.w3.org/2000/svg" xmlns:ev="http://www.w3.org/2001/xml-events" xmlns:xlink="http://www.w3.org/1999/xlink"><defs /><path d="M 319.6,190.0 C 320.8,262.8 322.0,268.1 271.6,309.1 C 221.1,350.2 210.5,344.7 151.5,327.0 C 92.4,309.2 113.4,310.1 74.7,249.9 C 36.1,189.8 0.4,192.9 22.6,126.4 C 44.9,59.8 75.5,46.2 149.0,28.2 C 222.5,10.3 216.6,18.1 267.8,66.6 C 318.9,115.2 318.5,117.2 319.6,190.0 Z" fill="#DFF3EA" opacity="0.6" stroke="none" /><path d="M 138.3,280.0 C 137.6,297.5 130.6,303.2 110.4,312.0 C 90.2,320.9 90.4,319.1 71.0,309.5 C 51.6,299.9 47.9,297.1 45.8,280.0 C 43.8,262.9 44.1,260.5 64.1,252.6 C 84.1,244.6 90.3,245.4 112.5,253.6 C 134.8,261.8 138.9,262.5 138.3,280.0 Z" fill="#B8E4D4" opacity="0.3" stroke="none" /><circle cx="325.73032618051485" cy="333.38668514123606" fill="#B8E4D4" opacity="0.49168484845980154" r="2.895334374345899" /><circle cx="224.00502083178773" cy="75.02213667786853" fill="#B8E4D4" opacity="0.4618137090358877" r="4.287532400225453" /><circle cx="280.83987034123703" cy="210.9273219902639" fill="#B8E4D4" opacity="0.3972468171014019" r="2.0017156883838307" /><circle cx="26.52470869925382" cy="354.47550185526217" fill="#B8E4D4" opacity="0.5494996588083538" r="4.6361656334695525" /><circle cx="123.01723200989159" cy="40.85305993790752" fill="#B8E4D4" opacity="0.5840848335893982" r="4.634028797612121" /><circle cx="48.69390644273939" cy="194.95656679398095" fill="#B8E4D4" opacity="0.5281806495771695" r="2.207637555405151" /><circle cx="276.5545338178409" cy="66.22092721991461" fill="#B8E4D4" opacity="0.46494107804848317" r="3.425847134296194" /><circle cx="108.79397069491979" cy="334.0758947906927" fill="#B8E4D4" opacity="0.3635394616326246" r="3.2694138206026606" /><circle cx="200.66418974111855" cy="282.77518487239143" fill="#B8E4D4" opacity="0.39351488739026846" r="2.6034531901690876" /><circle cx="353.3750344813997" cy="253.95610075020326" fill="#B8E4D4" opacity="0.4552727523106772" r="3.314300251743512" /><circle cx="60.536405615869015" cy="100.89104133136065" fill="#B8E4D4" opacity="0.47649261553717" r="3.014256686442366" /><circle cx="97.0884354198533" cy="99.2782584025614" fill="#B8E4D4" opacity="0.4893308871810297" r="2.2129792580270977" /><g transform="translate(100,110) scale(1.0)"><ellipse cx="0" cy="25" fill="none" rx="10" ry="15" stroke="#4DA89A" stroke-width="2" /><rect fill="none" height="20" rx="3" ry="3" stroke="#4DA89A" stroke-width="2" width="8" x="-4" y="-5" /></g><g transform="translate(200,100) scale(1.0)"><rect fill="none" height="30" rx="4" ry="4" stroke="#4DA89A" stroke-width="2" width="20" x="-10" y="0" /><rect fill="#EFE4D2" height="6" rx="2" ry="2" stroke="#4DA89A" stroke-width="1.5" width="22" x="-11" y="-5" /></g><g transform="translate(280,120) scale(1.0)"><rect fill="none" height="28" rx="4" ry="4" stroke="#4DA89A" stroke-width="2" width="18" x="-9" y="0" /><ellipse cx="0" cy="0" fill="none" rx="9" ry="3" stroke="#4DA89A" stroke-width="2" /><circle cx="3" cy="-1" fill="#E8A838" r="2.5" stroke="none" /></g><g transform="translate(150,220) scale(0.8)"><ellipse cx="0" cy="25" fill="none" rx="10" ry="15" stroke="#4DA89A" stroke-width="2" /><rect fill="none" height="20" rx="3" ry="3" stroke="#4DA89A" stroke-width="2" width="8" x="-4" y="-5" /></g><g transform="translate(250,200)"><line stroke="#2B7A6B" stroke-linecap="round" stroke-width="2.5" x1="5.51091059616309e-16" x2="4.500000000000001" y1="-9.0" y2="-7.794228634059947" /><circle cx="4.500000000000001" cy="-7.794228634059947" fill="#2B7A6B" r="3" /><line stroke="#2B7A6B" stroke-linecap="round" stroke-width="2.5" x1="7.794228634059948" x2="4.500000000000001" y1="4.499999999999999" y2="7.794228634059947" /><circle cx="4.500000000000001" cy="7.794228634059947" fill="#2B7A6B" r="3" /><line stroke="#2B7A6B" stroke-linecap="round" stroke-width="2.5" x1="-7.794228634059948" x2="-9.0" y1="4.499999999999999" y2="1.102182119232618e-15" /><circle cx="-9.0" cy="1.102182119232618e-15" fill="#2B7A6B" r="3" /></g><g transform="translate(180,80) scale(1.2)"><path d="M 0,-12 C 8,-8 10,0 6,8 C 3,12 0,12 0,12 C 0,12 -3,12 -6,8 C -10,0 -8,-8 0,-12 Z" fill="#DFF3EA" stroke="#2B7A6B" stroke-width="1.5" /><line opacity="0.5" stroke="#2B7A6B" stroke-width="1" x1="0" x2="0" y1="-8" y2="10" /></g><g transform="translate(300,250) scale(0.9)"><path d="M 0,-12 C 8,-8 10,0 6,8 C 3,12 0,12 0,12 C 0,12 -3,12 -6,8 C -10,0 -8,-8 0,-12 Z" fill="#DFF3EA" stroke="#2B7A6B" stroke-width="1.5" /><line opacity="0.5" stroke="#2B7A6B" stroke-width="1" x1="0" x2="0" y1="-8" y2="10" /></g><g transform="translate(70,180) scale(0.7)"><path d="M 0,-12 C 8,-8 10,0 6,8 C 3,12 0,12 0,12 C 0,12 -3,12 -6,8 C -10,0 -8,-8 0,-12 Z" fill="#DFF3EA" stroke="#2B7A6B" stroke-width="1.5" /><line opacity="0.5" stroke="#2B7A6B" stroke-width="1" x1="0" x2="0" y1="-8" y2="10" /></g><g transform="translate(90,260) scale(0.7)"><rect fill="none" height="28" rx="4" ry="4" stroke="#4DA89A" stroke-width="2" width="18" x="-9" y="0" /><ellipse cx="0" cy="0" fill="none" rx="9" ry="3" stroke="#4DA89A" stroke-width="2" /><circle cx="3" cy="-1" fill="#E8A838" r="2.5" stroke="none" /></g></svg>