<?xml version="1.0" encoding="utf-8" ?>
<svg baseProfile="full" height="400px" version="1.1" viewBox="0 0 375 400" width="375px" xmlns="http://www.w3.org/2000/svg" xmlns:ev="http://www.w3.org/2001/xml-events" xmlns:xlink="http://www.w3.org/1999/xlink"><defs /><path d="M 321.2,185.0 C 329.4,239.4 344.9,225.1 304.0,269.6 C 263.2,314.0 249.4,332.4 185.0,333.0 C 120.6,333.7 140.9,316.0 89.2,271.6 C 37.6,227.2 15.6,243.6 12.8,185.0 C 10.0,126.4 28.3,114.0 79.9,76.4 C 131.6,38.8 126.0,56.2 185.0,59.7 C 244.0,63.3 235.7,50.7 276.5,88.3 C 317.4,125.9 312.9,130.6 321.2,185.0 Z" fill="#DFF3EA" opacity="0.6" stroke="none" /><path d="M 338.8,280.0 C 340.1,298.6 340.6,304.8 321.8,312.4 C 303.0,320.0 294.2,315.2 276.1,305.4 C 258.0,295.7 261.3,295.8 261.6,280.0 C 261.9,264.2 260.3,261.6 277.1,252.7 C 293.9,243.8 299.0,242.1 317.5,250.3 C 336.0,258.5 337.5,261.4 338.8,280.0 Z" fill="#E8E3F7" opacity="0.4" stroke="none" /><circle cx="161.33034934452542" cy="120.27625208009857" fill="#B8E4D4" opacity="0.5769796797828038" r="2.7494193436463013" /><circle cx="168.44879959290807" cy="330.085677714259" fill="#B8E4D4" opacity="0.31517649885746435" r="3.650975937349544" /><circle cx="354.7596269182634" cy="320.96993062878266" fill="#B8E4D4" opacity="0.5779100949024383" r="4.9069887718542535" /><circle cx="304.3130710287923" cy="79.87199981740905" fill="#B8E4D4" opacity="0.36412418975975447" r="3.4569233763521554" /><circle cx="154.3484980040666" cy="41.10874398998441" fill="#B8E4D4" opacity="0.5955926531339177" r="3.1369193569307483" /><circle cx="108.8430244876709" cy="302.265416701485" fill="#B8E4D4" opacity="0.42690224579704883" r="3.3650251020174298" /><circle cx="340.7014096879905" cy="378.35216821737697" fill="#B8E4D4" opacity="0.5155224825888978" r="3.6673049702168545" /><circle cx="71.85693646681148" cy="126.81481717804311" fill="#B8E4D4" opacity="0.4737540872448769" r="4.906128094907476" /><circle cx="201.63539246038187" cy="289.27120173646307" fill="#B8E4D4" opacity="0.4752532783376914" r="2.171495818722449" /><circle cx="188.45487827803703" cy="326.97916113738273" fill="#B8E4D4" opacity="0.588233670982335" r="2.4722981838184497" /><circle cx="46.83734085559661" cy="86.89698595306035" fill="#B8E4D4" opacity="0.502563766081227" r="3.785105319350083" /><circle cx="98.79330482531195" cy="63.15918102096471" fill="#B8E4D4" opacity="0.3738646043365874" r="4.670861942388313" /><circle cx="219.1639164337028" cy="242.97734371955713" fill="#B8E4D4" opacity="0.4751016867873674" r="3.257674746007617" /><circle cx="195.13220970320623" cy="356.4942527851138" fill="#B8E4D4" opacity="0.5148575402368244" r="2.6127775982706094" /><g transform="translate(120,130) scale(1.1)"><rect fill="none" height="36" rx="4" ry="4" stroke="#4DA89A" stroke-width="2" width="24" x="-12" y="-18" /><rect fill="#DCEEF8" height="26" opacity="0.5" rx="2" ry="2" stroke="none" width="18" x="-9" y="-14" /><circle cx="0" cy="14" fill="none" r="2.5" stroke="#4DA89A" stroke-width="1.5" /></g><g transform="translate(220,110) scale(1.0)"><rect fill="none" height="24" rx="3" ry="3" stroke="#4DA89A" stroke-width="2" width="16" x="-8" y="-12" /><rect fill="#4DA89A" height="4" rx="1" ry="1" stroke="none" width="8" x="-4" y="-15" /><text fill="#E8A838" font-size="12px" x="-4" y="4">⚡</text></g><g transform="translate(290,150) scale(0.9)"><rect fill="none" height="35" rx="4" ry="4" stroke="#4DA89A" stroke-width="2" width="16" x="-8" y="0" /><rect fill="none" height="14" rx="3" ry="3" stroke="#4DA89A" stroke-width="2" width="8" x="-4" y="-12" /><rect fill="#2B7A6B" height="5" opacity="0.7" rx="2" ry="2" stroke="none" width="10" x="-5" y="-16" /></g><g transform="translate(170,200)"><line stroke="#2B7A6B" stroke-linecap="round" stroke-width="2.5" x1="6.429395695523604e-16" x2="5.250000000000001" y1="-10.5" y2="-9.093266739736606" /><circle cx="5.250000000000001" cy="-9.093266739736606" fill="#2B7A6B" r="3" /><line stroke="#2B7A6B" stroke-linecap="round" stroke-width="2.5" x1="9.093266739736606" x2="5.250000000000001" y1="5.249999999999999" y2="9.093266739736606" /><circle cx="5.250000000000001" cy="9.093266739736606" fill="#2B7A6B" r="3" /><line stroke="#2B7A6B" stroke-linecap="round" stroke-width="2.5" x1="-9.093266739736606" x2="-10.5" y1="5.249999999999999" y2="1.2858791391047208e-15" /><circle cx="-10.5" cy="1.2858791391047208e-15" fill="#2B7A6B" r="3" /></g><g transform="translate(80,230) scale(0.8)"><rect fill="none" height="28" rx="4" ry="4" stroke="#4DA89A" stroke-width="2" width="18" x="-9" y="0" /><ellipse cx="0" cy="0" fill="none" rx="9" ry="3" stroke="#4DA89A" stroke-width="2" /><circle cx="3" cy="-1" fill="#E8A838" r="2.5" stroke="none" /></g><g transform="translate(270,240) scale(0.7)"><rect fill="none" height="40" rx="5" ry="5" stroke="#4DA89A" stroke-width="2" width="24" x="-12" y="0" /><rect fill="none" height="12" rx="3" ry="3" stroke="#4DA89A" stroke-width="2" width="10" x="-5" y="-10" /><rect fill="#DFF3EA" height="12" rx="2" ry="2" stroke="none" width="16" x="-8" y="12" /></g><g transform="translate(320,90) scale(1.0)"><path d="M 0,-12 C 8,-8 10,0 6,8 C 3,12 0,12 0,12 C 0,12 -3,12 -6,8 C -10,0 -8,-8 0,-12 Z" fill="#DFF3EA" stroke="#2B7A6B" stroke-width="1.5" /><line opacity="0.5" stroke="#2B7A6B" stroke-width="1" x1="0" x2="0" y1="-8" y2="10" /></g><g transform="translate(50,150) scale(0.8)"><path d="M 0,-12 C 8,-8 10,0 6,8 C 3,12 0,12 0,12 C 0,12 -3,12 -6,8 C -10,0 -8,-8 0,-12 Z" fill="#DFF3EA" stroke="#2B7A6B" stroke-width="1.5" /><line opacity="0.5" stroke="#2B7A6B" stroke-width="1" x1="0" x2="0" y1="-8" y2="10" /></g><g transform="translate(200,270) scale(0.7)"><rect fill="none" height="36" rx="4" ry="4" stroke="#4DA89A" stroke-width="2" width="24" x="-12" y="-18" /><rect fill="#DCEEF8" height="26" opacity="0.5" rx="2" ry="2" stroke="none" width="18" x="-9" y="-14" /><circle cx="0" cy="14" fill="none" r="2.5" stroke="#4DA89A" stroke-width="1.5" /></g></svg>